<svg xmlns="http://www.w3.org/2000/svg" version="1.1" xmlns:xlink="http://www.w3.org/1999/xlink" xmlns:svgjs="http://svgjs.dev/svgjs" width="61.362758620689654" height="59.08903285579808"><svg class="looka-1j8o68f" viewBox="0 0 61.362758620689654 59.08903285579808" xmlns="http://www.w3.org/2000/svg" style="max-height: 500px" width="61.362758620689654" height="59.08903285579808"><defs id="SvgjsDefs1043"></defs><g fill="#F5D061" transform="matrix(0.7441417829388743,0,0,0.7441417829388743,-7.258817181159808,-7.577775742023807)" id="SvgjsG1042"><path d="M48.3,88.1c-8.5,0-16.7-3.7-22.3-10.6c-4.4-5.4-8.3-10-11.6-13.8c-3.7-4.2-5.3-9.7-4.4-15.2c0.9-5.5,4.1-10.3,9-13.1h0  l39-22.7c5.3-3.1,11.7-3.3,17.2-0.8c5.5,2.6,9.4,7.7,10.4,13.7l5,30.4c1.3,7.9-2.6,15.7-9.7,19.4c-5.1,2.7-12,6-20.4,9.9  C56.6,87.2,52.4,88.1,48.3,88.1z M20.9,38.8c-3.8,2.2-6.3,5.9-7,10.2c-0.7,4.3,0.6,8.7,3.5,11.9c3.4,3.8,7.3,8.5,11.7,13.9  c7.2,8.8,19.4,11.6,29.7,6.8c8.3-3.9,15.1-7.2,20.2-9.9c5.6-2.9,8.6-9,7.6-15.2l-5-30.4c-0.8-4.8-3.8-8.7-8.1-10.7  c-4.4-2.1-9.3-1.8-13.5,0.6L20.9,38.8L20.9,38.8z" xmlns="http://www.w3.org/2000/svg"></path></g><g fill="#F5D061" transform="matrix(2.1288782714335572,0,0,2.1288782714335572,78.59494015813077,-2.7732655680882825)" id="SvgjsG1041"><path d="M0.78 20 l0 -0.54 l0.34 -0.34 c0.36 -0.36 0.56 -0.82 0.56 -1.36 l0 -9.32 c0 -0.48 -0.22 -0.92 -0.52 -1.28 l-0.5 -0.58 l0 -0.58 l3.18 0 l4.98 11.58 l4.9 -11.58 l3.28 0 l0 0.58 l-0.54 0.58 c-0.32 0.34 -0.52 0.8 -0.52 1.3 l0 9.16 c0 0.46 0.14 0.92 0.5 1.28 l0.52 0.56 l0 0.54 l-4.24 0 l0 -0.54 l0.52 -0.56 c0.32 -0.36 0.48 -0.82 0.48 -1.28 l0 -9.8 l-4.56 10.66 l-2.16 0 l-4.48 -10.42 l0 10 c0 0.52 0.24 1.02 0.62 1.4 l0 0.54 l-2.36 0 z M25.92 20 l-0.54 -0.14 c-0.9 -0.24 -1.88 -0.24 -2.72 0.02 c-0.34 0.1 -0.66 0.12 -0.98 0.12 c-1.96 0 -3.52 -1.54 -3.52 -3.48 c0 -1.9 1.56 -3.46 3.52 -3.46 c0.78 0 1.48 0.24 2.02 0.62 l0 -0.02 s0.16 -2.44 -0.92 -2.74 c-1.12 -0.32 -1.52 0.34 -2.34 1.58 l-1.68 -0.02 c0.52 -1.32 1.54 -2.24 2.98 -2.24 c0.54 0 1.1 0.1 1.64 0.26 c0 0 2.54 0.78 2.54 3.16 l0 6.34 z M19.78 17.02 c0.46 1.5 1.6 2.56 2.76 2.3 c1.12 -0.26 1.64 -1.72 1.18 -3.28 c-0.44 -1.48 -1.74 -2.54 -2.86 -2.26 c-1.14 0.28 -1.54 1.72 -1.08 3.24 z M35.96 16.94 l1.48 0 c-0.7 1.9 -2.54 3.26 -4.76 3.26 c-2.82 0 -5.06 -2.26 -5.06 -4.98 c0 -2.78 2.24 -5.04 5.06 -5.04 c2.78 0 5.04 2.2 5.08 4.94 l-8.12 0 c0.08 0.24 0.12 0.5 0.2 0.78 c0.64 2.2 2.16 3.78 3.7 3.78 c1.44 0 2.22 -1.36 2.42 -2.74 z M29.540000000000003 14.3 l6.14 0 c-0.68 -2.08 -2.28 -3.4 -3.78 -3.4 c-1.52 0 -2.38 1.46 -2.38 2.96 c0 0.14 0 0.3 0.02 0.44 z M38.78 20 l0 -0.5 c0.68 -0.74 1.02 -1.66 1.02 -2.66 l0 -3.3 c0 -0.98 -0.34 -1.92 -1.02 -2.62 l0 -0.58 l3.22 0 l0 1.04 c0.62 -0.62 1.8 -1.1 2.62 -1.1 c0.86 0 1.46 0.32 1.46 0.32 l-0.42 1.82 s-0.9 -0.74 -2 -0.74 c-1.46 0 -1.66 0.98 -1.66 1.24 l0 3.92 c0 1 0.38 1.92 1.02 2.66 l0 0.5 l-4.24 0 z M55 16.94 l1.48 0 c-0.7 1.9 -2.54 3.26 -4.76 3.26 c-2.82 0 -5.06 -2.26 -5.06 -4.98 c0 -2.78 2.24 -5.04 5.06 -5.04 c2.78 0 5.04 2.2 5.08 4.94 l-8.12 0 c0.08 0.24 0.12 0.5 0.2 0.78 c0.64 2.2 2.16 3.78 3.7 3.78 c1.44 0 2.22 -1.36 2.42 -2.74 z M48.580000000000005 14.3 l6.14 0 c-0.68 -2.08 -2.28 -3.4 -3.78 -3.4 c-1.52 0 -2.38 1.46 -2.38 2.96 c0 0.14 0 0.3 0.02 0.44 z M67.48 8.88 l-0.3 2.02 s-0.72 -0.28 -1.46 -0.28 c-0.6 0 -0.86 0.16 -0.98 0.4 c0.9 0.6 1.54 1.66 1.54 2.84 c0 2.34 -1.74 3.66 -3.8 3.66 c-0.7 0 -1.32 -0.22 -1.88 -0.56 c-0.3 0.3 -0.46 0.56 -0.46 0.8 c0 0.66 1.22 1.08 3.96 1.08 c2.88 0 3.56 1.84 3.56 2.94 c0 1.06 -1.24 2.44 -4.08 2.44 c-3.26 0 -5.16 -1.12 -5.16 -2.94 c0 -0.46 0.14 -0.88 0.3 -1.18 c-0.38 -0.26 -0.62 -0.62 -0.62 -1.1 c0 -1.12 1.28 -1.98 1.98 -2.4 c-0.8 -0.5 -1.58 -1.64 -1.58 -2.74 c0 -2.02 1.36 -3.64 3.98 -3.64 c0.66 0 1.3 0.18 1.86 0.5 c0.32 -1.22 1.48 -1.88 2.76 -1.88 c0.24 0 0.38 0.04 0.38 0.04 z M63.14 17.1 c1 0 1.56 -1.02 1.56 -2.26 c0 -2.3 -1.54 -4.18 -2.82 -4.18 c-1.06 0 -1.5 1.08 -1.5 2.08 c0 2.26 1.5 4.36 2.76 4.36 z M59.64 20.48 c-0.02 0.1 -0.02 0.18 -0.02 0.26 c0 1.5 2.1 2.16 3.74 2.16 c1.62 0 2.7 -0.34 2.7 -1.04 c0 -1.74 -5.04 -1.16 -6.42 -1.38 z M74.58000000000001 20 l0 -1.28 l8.9 -11.78 l-4.58 0 c-1.02 0 -2.04 0.32 -2.86 0.94 l-0.64 0 l0 -1.88 l9.96 0 l0 1.46 l-8.76 11.62 l5.2 0 c1.08 0 2.08 -0.32 2.92 -0.92 l0.64 0 l0 1.84 l-10.78 0 z M94.46 16.94 l1.48 0 c-0.7 1.9 -2.54 3.26 -4.76 3.26 c-2.82 0 -5.06 -2.26 -5.06 -4.98 c0 -2.78 2.24 -5.04 5.06 -5.04 c2.78 0 5.04 2.2 5.08 4.94 l-8.12 0 c0.08 0.24 0.12 0.5 0.2 0.78 c0.64 2.2 2.16 3.78 3.7 3.78 c1.44 0 2.22 -1.36 2.42 -2.74 z M88.03999999999999 14.3 l6.14 0 c-0.68 -2.08 -2.28 -3.4 -3.78 -3.4 c-1.52 0 -2.38 1.46 -2.38 2.96 c0 0.14 0 0.3 0.02 0.44 z M100.78 20 l-3 -7.72 c-0.08 -0.2 -0.16 -0.3 -0.28 -0.44 l-0.88 -0.94 l0 -0.56 l3.78 0 l0 0.56 l-0.26 0.56 c-0.18 0.38 -0.18 0.76 -0.04 1.14 l2.48 6.34 l1.96 -5.04 c0.46 -1.14 0.46 -2.4 0 -3.56 l2.2 0 l3.34 8.64 l2.58 -6.62 c0.18 -0.5 0.08 -1.06 -0.32 -1.4 l0 -0.62 l2.44 0 l0 0.62 l-0.78 0.5 c-0.24 0.16 -0.36 0.36 -0.46 0.62 l-3.06 7.92 l-2.2 0 l-2.66 -6.84 l-2.68 6.84 l-2.16 0 z M123.63999999999999 11.3 l0 -2.08 c0 -0.98 -0.4 -1.92 -1.08 -2.64 l0 -0.58 l3.26 0 l0 14.02 c-0.64 -0.28 -1.3 -0.42 -1.96 -0.42 c-1.16 0 -2.14 0.62 -3.34 0.62 c-2.8 0 -5.46 -2.26 -5.46 -4.98 c0 -2.78 2.16 -5.04 5.46 -5.04 c1.18 0 2.24 0.44 3.12 1.1 z M121.35999999999999 19.7 c1.52 0 2.5 -1.52 2.5 -3.36 c0 -3.06 -2.24 -5.56 -4.16 -5.56 c-1.52 0 -2.36 1.44 -2.36 3.2 c0 0.6 0.1 1.26 0.32 1.94 c0.68 2.2 2.16 3.78 3.7 3.78 z M128.26 15.32 l-0.02 -2.68 c0 -0.42 -0.12 -0.78 -0.34 -1.12 l-0.36 -0.62 l0 -0.56 l3.42 0 l0 0.56 l-0.36 0.56 c-0.24 0.36 -0.46 0.84 -0.46 1.24 l0.1 4.2 c0.04 1.28 1.2 2.14 2.5 2.14 c1.96 0 2.44 -1.32 2.44 -2.6 l0 -3.96 c0 -0.6 -0.26 -1.16 -0.7 -1.54 l0 -0.6 l2.24 0 l0 0.6 l-0.16 0.18 c-0.4 0.4 -0.58 0.9 -0.58 1.44 l0 4.24 c0 0.8 -0.16 3.3 -3.32 3.3 c-2.5 0 -4.36 -0.74 -4.4 -4.78 z"></path></g></svg><style>@media (prefers-color-scheme: light) { :root { filter: none; } }
@media (prefers-color-scheme: dark) { :root { filter: none; } }
</style></svg>